<mxfile host="app.diagrams.net" modified="2023-12-27T14:17:27.387Z" agent="Mozilla/5.0 (Windows NT 10.0; Win64; x64) AppleWebKit/537.36 (KHTML, like Gecko) Chrome/120.0.0.0 Safari/537.36 Edg/120.0.0.0" version="22.1.12" etag="gS4LBhnXo_GZ-BFMLY0v" type="github">
  <diagram name="第 1 页" id="vJwnFq0vGBrlgj4IsBlW">
    <mxGraphModel>
      <root>
        <mxCell id="0" />
        <mxCell id="1" parent="0" />
      </root>
    </mxGraphModel>
  </diagram>
</mxfile>
